<?xml version="1.0" standalone="no"?>
<!DOCTYPE svg PUBLIC "-//W3C//DTD SVG 20010904//EN"
 "http://www.w3.org/TR/2001/REC-SVG-20010904/DTD/svg10.dtd">
<svg version="1.0" xmlns="http://www.w3.org/2000/svg"
 width="393.000000pt" height="353.000000pt" viewBox="0 0 393.000000 353.000000"
 preserveAspectRatio="xMidYMid meet">

<g transform="translate(0.000000,353.000000) scale(0.100000,-0.100000)"
fill="#000000" stroke="none">
<path d="M2254 3505 c-12 -8 -27 -27 -33 -43 -9 -21 -27 -35 -68 -52 -56 -23
-56 -23 -125 -5 -86 22 -176 17 -238 -15 -25 -13 -75 -52 -111 -87 -63 -61
-68 -63 -95 -52 -16 6 -72 11 -124 11 -76 1 -105 -3 -143 -20 -45 -20 -56 -42
-21 -42 21 0 17 -10 -12 -33 -25 -19 -26 -24 -22 -91 3 -49 14 -91 33 -134 15
-34 26 -64 24 -66 -2 -2 -143 -51 -314 -110 -170 -59 -317 -113 -325 -122 -13
-13 -11 -40 24 -242 21 -125 40 -239 43 -253 5 -24 -1 -30 -57 -60 -34 -18
-83 -56 -110 -86 -46 -50 -90 -136 -77 -150 8 -7 224 -27 462 -42 520 -33
1279 -37 1775 -11 324 17 539 33 552 41 20 13 -17 75 -85 141 l-58 57 50 292
c32 185 47 298 41 308 -9 17 -19 20 -400 151 l-235 81 -19 67 c-13 48 -19 103
-20 197 -1 127 -4 148 -31 210 -7 17 -16 46 -19 66 -7 41 -46 81 -95 98 -48
16 -142 14 -167 -4z m187 -26 c23 -11 39 -22 37 -25 -3 -2 -20 4 -39 13 -22
11 -58 17 -101 17 -37 0 -64 4 -62 8 11 17 124 8 165 -13z m-116 -69 c-3 -5
-12 -10 -18 -10 -7 0 -6 4 3 10 19 12 23 12 15 0z m116 -18 c-7 -2 -18 1 -23
6 -8 8 -4 9 13 5 13 -4 18 -8 10 -11z m-174 -14 l73 -23 -7 -35 c-6 -38 -18
-50 -46 -50 -30 0 -92 -37 -124 -73 -37 -42 -101 -203 -109 -272 -8 -66 11
-216 37 -293 30 -90 88 -175 135 -197 74 -35 180 -11 213 47 13 23 13 38 -4
126 -24 130 -17 234 24 364 16 53 35 125 41 158 14 77 2 100 -67 126 -55 21
-63 29 -63 67 0 26 1 27 60 27 71 0 83 -12 99 -105 11 -60 4 -138 -18 -209
-65 -212 -64 -204 -58 -310 4 -56 15 -134 26 -174 26 -95 19 -115 -56 -150
-79 -36 -157 -36 -233 0 -30 14 -64 33 -75 42 -20 17 -20 17 2 7 34 -17 34
-14 -2 39 -72 107 -99 225 -98 430 0 154 20 259 64 344 20 39 97 136 108 136
3 0 39 -10 78 -22z m-240 -14 c61 -20 68 -27 48 -48 -15 -15 -18 -15 -33 3 -9
11 -30 23 -46 27 l-28 7 17 -27 c21 -31 20 -31 -33 -6 -64 31 -95 26 -147 -21
-25 -23 -45 -47 -45 -54 0 -18 117 -50 182 -50 32 0 58 -3 58 -7 0 -4 -10 -43
-22 -85 -19 -65 -22 -103 -23 -233 0 -85 4 -179 8 -208 8 -47 7 -51 -8 -46
-14 6 -16 3 -12 -12 3 -10 9 -32 13 -49 l7 -30 -27 25 c-15 14 -43 56 -62 95
l-35 70 6 -79 6 -78 -31 22 c-70 50 -136 180 -155 308 l-7 43 -28 -38 c-30
-43 -50 -94 -50 -131 0 -18 3 -22 13 -14 9 8 12 -11 13 -91 2 -108 22 -204 68
-319 l25 -63 -35 40 c-52 59 -149 259 -169 349 -9 42 -19 76 -22 76 -10 0 -43
-91 -51 -141 l-8 -54 -18 79 c-21 90 -18 184 8 234 l17 32 -36 32 c-47 41 -65
77 -65 133 0 143 148 209 247 110 40 -40 40 -48 8 -109 -33 -62 -32 -66 10
-26 37 36 50 66 61 142 5 42 14 55 75 112 97 92 194 117 306 80z m-64 -91 c-7
-2 -13 -13 -13 -23 0 -10 6 -20 13 -23 6 -2 9 -8 5 -12 -11 -11 -55 3 -61 20
-8 19 19 45 46 44 12 0 16 -3 10 -6z m321 -62 c8 -13 -15 -74 -24 -64 -11 12
-21 59 -13 67 9 9 31 7 37 -3z m62 -5 c5 -14 -22 -66 -35 -66 -4 0 -6 62 -2
78 3 9 33 -1 37 -12z m54 -14 c0 -9 -9 -28 -20 -42 l-20 -25 0 42 c0 24 5 43
13 46 17 6 27 -1 27 -21z m-176 -22 c-1 -19 -5 -62 -10 -95 l-9 -59 -19 29
c-27 41 -33 108 -12 140 25 37 51 29 50 -15z m234 8 c19 -19 14 -70 -11 -108
l-22 -35 -3 64 c-4 87 6 109 36 79z m98 -434 c-3 -39 -10 -82 -15 -95 -8 -19
-10 -9 -12 51 -1 41 -2 84 -1 95 1 11 3 40 3 65 l0 45 15 -45 c11 -31 14 -67
10 -116z m-1294 -92 c-66 -150 -102 -211 -172 -286 -60 -63 -224 -185 -235
-174 -3 3 -20 89 -37 192 -23 133 -29 189 -21 197 11 11 477 177 500 178 6 1
-9 -46 -35 -107z m1609 22 c136 -48 250 -92 253 -99 2 -7 -13 -113 -35 -236
-21 -123 -39 -230 -39 -237 0 -31 -211 105 -307 199 -76 74 -153 193 -153 235
0 40 23 224 28 224 3 0 116 -39 253 -86z m-710 66 c43 -12 78 -48 112 -115 22
-41 26 -46 27 -25 0 14 -6 50 -14 80 -8 30 -13 56 -11 58 6 7 67 -53 81 -80
20 -38 15 -173 -6 -173 -9 0 -15 12 -16 33 -1 18 -4 36 -7 39 -11 11 -57 -32
-53 -49 5 -20 -9 -32 -24 -23 -6 4 -7 13 -1 23 10 19 -7 112 -20 112 -13 0
-39 -43 -39 -63 0 -43 -43 32 -81 141 -20 59 -18 61 52 42z m70 -233 c-27 -27
-42 35 -19 76 11 20 13 19 20 -23 4 -25 4 -48 -1 -53z m177 30 c-5 -52 -28
-45 -28 8 0 42 2 46 16 35 9 -8 14 -25 12 -43z m-92 -43 c-3 -8 -10 -14 -16
-14 -14 0 -13 33 3 49 10 10 13 9 15 -4 2 -9 1 -23 -2 -31z m-760 -234 c102
-135 334 -357 334 -318 0 7 -7 36 -15 63 -19 59 -65 284 -65 311 0 11 16 -19
35 -66 52 -125 120 -233 206 -324 l76 -81 -136 7 c-318 17 -553 51 -669 97
-29 12 -56 21 -59 21 -4 0 13 -20 37 -45 l44 -45 -44 0 c-49 0 -155 14 -239
31 l-53 11 6 51 c7 51 7 51 -12 33 -11 -9 -28 -32 -37 -49 l-16 -32 5 34 c4
19 13 48 21 64 8 17 13 32 10 35 -9 9 -70 -23 -106 -55 -32 -29 -38 -31 -54
-19 -17 12 -14 17 46 61 35 26 92 61 127 78 l62 31 105 -52 c58 -28 105 -50
105 -48 0 2 -7 20 -15 39 -16 38 -21 197 -7 197 5 0 40 -51 80 -113 64 -103
155 -207 169 -193 3 2 -4 17 -14 33 -36 52 -37 56 -14 48 25 -8 25 -12 1 105
-11 52 -20 127 -19 165 0 69 0 70 17 45 9 -14 49 -68 88 -120z m974 -138 c-18
-137 -28 -166 -72 -208 l-39 -39 7 54 7 53 -24 -14 c-13 -8 -46 -28 -74 -43
l-50 -29 58 65 c68 74 174 228 184 267 7 26 8 26 11 4 2 -13 -2 -63 -8 -110z
m-406 8 c10 -25 30 -69 46 -97 15 -29 23 -50 17 -46 -6 4 -8 -2 -5 -15 9 -33
1 -26 -22 18 -25 50 -33 51 -24 4 9 -48 -11 -38 -37 20 -19 41 -24 110 -13
154 8 28 16 21 38 -38z m684 3 c78 -50 161 -116 156 -124 -3 -5 -22 -9 -42
-10 l-37 -1 30 -8 c17 -4 47 -11 68 -14 69 -12 44 -32 -65 -50 -57 -9 -113
-19 -125 -22 -20 -4 -23 0 -23 25 l0 30 -51 -34 c-36 -23 -68 -36 -103 -39
-106 -11 -157 -13 -149 -6 4 4 46 32 92 64 76 52 83 54 77 31 -4 -14 -5 -25
-3 -25 9 0 96 119 116 158 12 23 24 42 27 42 2 0 17 -8 32 -17z"/>
<path d="M1443 3173 c-13 -2 -36 -18 -53 -34 -50 -51 -52 -141 -4 -199 38 -45
56 -40 37 9 -30 77 13 159 94 178 l38 9 -25 16 c-31 20 -58 26 -87 21z"/>
<path d="M2265 2550 c-3 -5 -2 -10 4 -10 5 0 13 5 16 10 3 6 2 10 -4 10 -5 0
-13 -4 -16 -10z"/>
<path d="M2345 2550 c-3 -5 -1 -10 4 -10 6 0 11 5 11 10 0 6 -2 10 -4 10 -3 0
-8 -4 -11 -10z"/>
<path d="M390 1690 c0 -101 -2 -120 -15 -120 -16 0 -95 -37 -95 -44 0 -2 23 4
50 15 31 12 74 19 113 18 44 0 55 -3 37 -8 -14 -5 -45 -19 -70 -32 -25 -12
-49 -22 -54 -21 -4 2 -16 -3 -25 -10 -14 -12 -15 -11 -2 5 8 10 19 16 26 13 6
-2 12 2 12 9 0 16 -13 11 -94 -41 -29 -19 -53 -31 -53 -28 0 13 32 64 40 64 6
0 10 4 10 10 0 19 -105 -55 -171 -120 -69 -68 -89 -108 -89 -180 l1 -35 15 28
c9 16 18 27 21 24 2 -3 -1 -39 -7 -81 -12 -83 -6 -155 18 -201 l16 -30 6 30
c6 29 7 28 43 -40 42 -79 76 -119 143 -170 68 -52 74 -49 74 40 0 73 1 75 25
75 l25 0 0 -155 0 -155 23 5 c27 6 367 31 612 45 295 18 1214 24 1570 11 291
-11 613 -29 838 -49 l87 -8 0 253 c0 139 3 253 8 253 4 0 15 -7 25 -14 14 -11
17 -31 18 -127 l0 -114 36 97 c20 54 40 95 45 92 5 -3 15 2 23 12 10 15 16 16
27 6 12 -9 17 -6 30 21 9 17 48 67 86 110 48 53 76 94 87 127 16 48 16 49 -9
99 -32 63 -32 67 0 46 l27 -17 -7 33 c-10 50 -55 135 -93 174 -45 46 -98 73
-208 105 l-90 26 -3 37 c-4 43 12 41 -187 22 -431 -41 -665 -49 -1380 -49
-715 0 -949 8 -1380 49 -82 8 -158 15 -167 15 -16 0 -18 -12 -18 -120z m3243
5 c42 -15 77 -45 77 -67 0 -4 -36 8 -81 27 -81 35 -112 38 -87 8 9 -11 1 -10
-30 6 -23 12 -63 24 -88 28 -32 4 -41 9 -32 15 20 14 186 2 241 -17z m-68 -25
c3 -6 -1 -7 -9 -4 -18 7 -21 14 -7 14 6 0 13 -4 16 -10z m-125 -41 c107 -16
158 -37 176 -71 8 -16 14 -33 12 -38 -2 -5 -37 11 -78 35 -41 25 -79 45 -85
45 -5 0 -2 -5 8 -11 9 -6 14 -15 11 -21 -4 -6 -2 -8 4 -4 6 3 14 1 18 -5 5 -8
3 -9 -6 -4 -10 6 -12 4 -7 -7 3 -10 -14 -3 -44 18 -28 18 -77 43 -109 55 -33
12 -60 23 -60 24 0 4 88 -5 160 -16z m-2415 -25 l140 -7 62 -50 c35 -28 60
-54 56 -57 -9 -7 -159 -70 -168 -70 -3 0 -5 11 -5 25 0 24 -3 25 -60 25 l-60
0 0 -52 0 -53 -83 -32 c-45 -18 -86 -33 -90 -33 -4 0 -7 46 -7 101 0 74 -4
105 -14 113 -7 6 -26 33 -42 60 l-28 49 80 -6 c43 -4 142 -9 219 -13z m2046
-66 l78 -63 1 -150 0 -151 -81 -67 -81 -67 -69 0 -69 0 0 -70 0 -70 -90 -45
-90 -45 0 340 c0 220 -4 340 -10 340 -5 0 -23 21 -40 48 l-29 47 62 6 c34 3
125 6 201 7 l139 2 78 -62z m-1464 36 c2 -5 19 -34 37 -64 l34 -54 39 62 38
62 95 -2 95 -3 0 -48 0 -49 -130 -75 c-71 -41 -123 -73 -115 -70 8 3 66 26
127 51 62 25 115 46 118 46 3 0 5 -113 5 -250 l0 -251 -74 -33 c-130 -59 -116
-77 -116 146 -1 210 2 205 -53 112 l-28 -47 -42 69 -42 69 -3 -237 -2 -238
-90 0 -90 0 0 368 0 369 50 23 c69 32 56 37 -15 5 -32 -14 -59 -25 -60 -25 -4
0 -45 70 -45 77 0 9 264 -4 267 -13z m943 -201 l0 -218 -164 -62 c-90 -35
-172 -63 -183 -63 -10 0 -45 15 -78 33 l-60 32 -3 193 -2 193 -30 41 c-17 22
-30 45 -30 50 0 4 56 8 125 8 l125 0 0 -195 0 -195 50 -25 c27 -14 52 -25 55
-25 3 0 5 99 5 219 0 166 3 221 13 224 6 3 49 6 95 6 l82 1 0 -217z m1281 105
c16 -22 17 -27 5 -22 -20 8 -20 -4 0 -52 l16 -39 -26 24 c-30 28 -31 25 -11
-49 19 -71 19 -76 -3 -57 -27 25 -32 21 -32 -23 0 -48 -25 -114 -40 -105 -5 3
-10 14 -10 23 0 11 -11 5 -38 -21 -41 -40 -52 -39 -52 5 0 34 -4 34 -55 3 -49
-30 -55 -31 -55 -4 0 20 -4 21 -52 17 l-53 -5 40 17 c76 33 86 34 92 11 8 -30
18 -26 55 19 l32 41 17 -33 17 -33 19 32 c21 38 29 41 38 13 3 -11 11 -20 16
-20 6 0 7 29 3 78 -7 76 -7 77 13 60 33 -30 33 -21 3 47 -16 36 -25 65 -20 65
5 0 12 -4 15 -10 10 -16 28 -12 21 5 -3 8 -9 22 -12 30 -5 12 -2 14 12 8 15
-6 14 1 -9 33 l-28 39 31 -35 c17 -19 40 -47 51 -62z m-466 22 c65 -11 158
-46 187 -71 l23 -19 -28 10 c-37 13 -40 13 -33 -5 4 -11 -12 -6 -52 14 -31 17
-70 35 -86 41 -27 10 -28 9 -15 -6 13 -16 12 -16 -7 -6 -12 6 -24 9 -27 6 -2
-3 -33 9 -68 25 l-64 30 60 -5 c33 -3 83 -9 110 -14z m-2820 -22 c-22 -11 -59
-36 -82 -54 -43 -35 -66 -28 -34 11 15 19 15 19 -4 5 -11 -8 -42 -32 -68 -54
-26 -21 -50 -36 -54 -33 -3 4 0 21 7 38 10 23 27 38 64 55 59 27 150 53 186
53 22 0 20 -3 -15 -21z m3140 -28 c20 -38 20 -74 1 -67 -10 4 -17 -4 -22 -26
-9 -43 -15 -52 -25 -36 -7 11 -15 8 -34 -13 -34 -39 -37 -35 -16 20 14 34 24
46 36 44 15 -3 16 2 11 33 -7 35 -6 36 15 25 21 -12 22 -11 16 19 -8 39 -2 40
18 1z m-2395 -345 l0 -345 -90 0 -90 0 0 140 0 140 -60 0 -60 0 0 -144 0 -143
-52 -7 c-29 -3 -70 -6 -91 -6 l-37 0 2 202 3 202 80 58 c44 31 83 58 88 58 4
0 7 -16 7 -35 l0 -35 60 0 60 0 0 79 0 79 88 51 c48 28 88 51 90 51 1 0 2
-155 2 -345z m-1090 275 c-27 -24 -30 -30 -15 -30 17 0 16 -2 -6 -26 l-24 -27
28 5 c15 3 27 3 27 0 0 -3 -16 -24 -35 -48 -40 -49 -43 -58 -14 -49 17 6 20 4
16 -12 -3 -10 -11 -37 -18 -61 -7 -23 -9 -45 -4 -50 4 -4 10 -1 12 6 9 23 21
12 28 -25 l7 -37 18 24 19 25 24 -54 c21 -49 25 -53 35 -35 10 18 14 16 54
-25 l43 -44 -36 22 c-45 26 -49 26 -49 -1 0 -18 -5 -15 -32 20 -18 23 -35 42
-39 42 -4 0 -12 -12 -17 -27 l-9 -28 -19 40 c-10 22 -20 42 -21 44 -1 2 -9 -2
-17 -8 -12 -11 -16 -7 -22 25 -4 20 -2 56 3 80 11 48 11 49 -18 34 -25 -14
-24 -9 6 50 30 60 31 64 5 50 -25 -14 -25 -6 1 31 19 27 18 34 -6 29 -13 -2
-1 10 55 54 55 43 68 46 20 6z m3153 -6 c59 -15 171 -66 180 -81 12 -19 -52
-5 -94 20 -55 33 -68 34 -43 5 18 -21 18 -21 -16 2 l-35 23 36 -39 c43 -46 65
-84 49 -84 -6 0 -15 11 -20 25 -14 36 -83 82 -164 107 -39 12 -75 26 -80 30
-17 14 124 8 187 -8z m-2694 3 c-50 -37 -110 -76 -105 -69 3 6 -1 13 -10 16
-16 6 -44 -9 -109 -58 -27 -22 -37 -26 -32 -13 8 20 3 21 -26 6 -21 -11 -21
-10 2 15 30 32 107 70 181 90 49 13 110 21 99 13z m-119 -60 c0 -2 -10 -12
-22 -23 l-23 -19 19 23 c18 21 26 27 26 19z m-254 -83 c11 4 14 -4 14 -35 0
-24 4 -38 10 -34 10 6 20 -14 34 -65 7 -24 7 -24 -9 -5 -9 11 -21 20 -28 20
-6 0 -15 17 -20 38 -7 28 -13 37 -24 32 -13 -4 -14 1 -9 26 3 17 7 39 7 48 1
9 4 6 6 -7 3 -15 10 -22 19 -18z m378 -3 c-71 -33 -140 -91 -159 -135 -7 -17
-14 -24 -14 -16 -1 8 6 28 14 44 18 34 19 39 3 30 -7 -4 -8 -3 -4 5 4 6 11 9
15 6 5 -2 19 8 32 23 20 22 20 24 3 9 -14 -12 -23 -14 -26 -7 -2 6 -23 -6 -46
-26 -24 -20 -46 -34 -49 -31 -3 4 -15 1 -27 -5 -16 -8 -14 -3 9 21 30 33 149
96 195 104 14 2 45 5 70 5 l45 1 -61 -28z m1886 -282 l0 -182 -240 5 c-133 3
-243 8 -245 10 -3 3 7 32 22 66 l28 62 122 0 c116 0 123 1 123 20 0 13 -15 27
-47 43 l-46 24 129 66 c71 36 135 66 142 67 9 0 12 -43 12 -181z m293 -188
c-4 -4 -45 -5 -91 -3 -112 5 -110 24 8 68 l85 32 3 -45 c2 -25 0 -49 -5 -52z
m-893 49 l0 -30 -62 0 -63 0 50 30 c63 38 75 38 75 0z"/>
<path d="M2850 1320 l0 -130 60 0 60 0 0 130 0 130 -60 0 -60 0 0 -130z"/>
<path d="M1925 498 c4 -46 13 -146 21 -223 8 -77 14 -146 14 -154 0 -11 -15
-13 -80 -7 -137 11 -305 71 -437 154 l-41 26 48 55 c52 60 150 199 150 213 0
4 -24 8 -54 8 -53 0 -53 0 -88 -52 -19 -29 -57 -77 -84 -107 l-48 -54 -33 39
c-18 22 -52 67 -74 102 -40 60 -43 62 -83 62 -70 0 -74 -10 -30 -81 89 -147
291 -319 458 -388 148 -62 214 -74 391 -74 141 0 172 3 259 26 242 65 451 216
588 427 55 83 53 88 -27 89 -37 1 -42 -3 -67 -42 -15 -24 -51 -69 -80 -101
l-53 -59 -48 58 c-26 32 -61 80 -79 106 -31 49 -32 49 -86 49 -44 0 -53 -3
-48 -15 11 -28 89 -140 138 -198 l50 -57 -24 -20 c-50 -42 -224 -120 -316
-141 -51 -12 -95 -19 -99 -16 -6 7 -25 188 -38 360 l-7 97 -50 0 -49 0 6 -82z"/>
</g>
</svg>
